<svg xmlns="http://www.w3.org/2000/svg" width="512" height="512" viewBox="0 0 512 512">
  <rect width="512" height="512" rx="50" fill="#1DA1F2" />
  <path d="M256 120 C 180 120, 120 180, 120 256 C 120 332, 180 392, 256 392 C 332 392, 392 332, 392 256 C 392 180, 332 120, 256 120 Z M 256 150 C 315 150, 362 197, 362 256 C 362 315, 315 362, 256 362 C 197 362, 150 315, 150 256 C 150 197, 197 150, 256 150 Z" fill="white" />
  <path d="M256 180 L 256 256 L 320 300" stroke="white" stroke-width="25" stroke-linecap="round" fill="none" />
  <circle cx="256" cy="256" r="15" fill="white" />
</svg> 